# xmcd
# Track frame offsets:
# 150
# 14015
# 26342
# 37585
# 50117
# 60750
# 71385
# 82482
# 93265
# 104835
# 115860
# 127425
# 138672
# 150432
# 162195
# 173237
# 185080
# 194967
# 205255
# 215395
# 225672
#
# Disc length: 3161 seconds
# Revision: 2
# Processed by: cddbd v1.5.2PL0 Copyright (c) Steve Scherf et al.
# Submitted via: VisiTrax 2.11.2.271 - For more info visit www.synapsa.com
#
DISCID=350c5715
DTITLE=PastyCline - Fingerprints
DYEAR=1900
DGENRE=Country
TTITLE0=A Church, A Courtroom And Then Goodbye
TTITLE1=A Poor Man's Roses
TTITLE2=Cry Not Fo rMe
TTITLE3=Fingerprints
TTITLE4=Got A Lot Of Rhythm In My Soul
TTITLE5=Honky Tonk Merry-Go-Round
TTITLE6=Hidin' Out
TTITLE7=I Cried All The Way To The Altar
TTITLE8=I've Loved And Lost Again
TTITLE9=I Can't Forget
TTITLE10=In Care Of The Blues
TTITLE11=Just Out Of Reach
TTITLE12=Let The Teardrops Fall
TTITLE13=Never No More
TTITLE14=Stop The World And Let Me Off
TTITLE15=Today, Tomorrow And Forever
TTITLE16=Turn The Cards Slowly
TTITLE17=Too Many Secerts
TTITLE18=Three Cigarettes In The Ashtray
TTITLE19=Walking Dream
TTITLE20=Walkin' After Midnight
EXTD=corrected - more info
EXTT0=
EXTT1=
EXTT2=
EXTT3=
EXTT4=
EXTT5=
EXTT6=
EXTT7=
EXTT8=
EXTT9=
EXTT10=
EXTT11=
EXTT12=
EXTT13=
EXTT14=
EXTT15=
EXTT16=
EXTT17=
EXTT18=
EXTT19=
EXTT20=
PLAYORDER=
